# xmcd
#
# Track frame offsets: 
#        150
#        15439
#        38278
#        64367
#        86337
#        97263
#        113947
#        137197
#        155453
#        175353
#
# Disc length: 2514 seconds
#
# Revision: 7
# Processed by: cddbd v1.5.2PL0 Copyright (c) Steve Scherf et al.
# Submitted via: ExactAudioCopy v1.0b3
#
DISCID=7d09d00a
DTITLE=Young, Neil - Living With War
DYEAR=2006
DGENRE=West Coast
TTITLE0=After The Garden
TTITLE1=Living With War
TTITLE2=The Restless Consumer
TTITLE3=Shock And Awe
TTITLE4=Families
TTITLE5=Flags Of Freedom
TTITLE6=Let's Impeach The President
TTITLE7=Lookin' For A Leader
TTITLE8=Roger And Out
TTITLE9=America The Beautiful
EXTD=US #15Living With War is a 2006 album by Canadian-American musici
EXTD=an Neil Young. The album's lyrics, titles, and conceptual style a
EXTD=re highly critical of the policies of the George W. Bush administ
EXTD=ration, and some have called it a "musical critique"of Bush and t
EXTD=he War in Iraq [2]. Written and recorded over the course of nine 
EXTD=days in March and April 2006
EXTT0=
EXTT1=
EXTT2=
EXTT3=
EXTT4=
EXTT5=
EXTT6=
EXTT7=
EXTT8=
EXTT9=
PLAYORDER=
